# Blender 3.6.1
# www.blender.org
mtllib testobject.mtl
o Solid
v 1.162371 3.246241 0.724273
v 0.850842 1.959448 -0.017003
v -0.236476 3.246241 1.312153
v -0.548005 1.959448 0.570878
v 0.663820 4.050318 -0.462016
v 0.352291 2.763525 -1.203292
v -0.735027 4.050318 0.125864
v -1.046556 2.763525 -0.615411
v 1.343659 2.756410 -0.054591
v 1.035537 3.253357 -0.787758
v -0.919723 2.756409 0.896620
v -1.227844 3.253356 0.163453
v 0.557511 2.752012 1.243226
v 0.364976 1.956730 0.785092
v -0.249161 4.053036 -0.676230
v -0.441697 3.257754 -1.134364
v 0.742207 4.045920 0.472470
v -0.122328 4.045920 0.835800
v 0.238142 1.963846 -0.726939
v -0.626392 1.963846 -0.363609
vn 0.8921 0.4458 -0.0727
vn 0.7642 -0.4508 0.4614
vn 0.3474 0.4428 0.8266
vn 0.6763 -0.4458 -0.5864
vn -0.2052 -0.4508 0.8687
vn 0.0019 1.0000 0.0045
vn 0.2052 0.4508 -0.8687
vn -0.6763 0.4458 0.5864
vn -0.0019 -1.0000 -0.0045
vn -0.3474 -0.4428 -0.8266
vn -0.7642 0.4508 -0.4614
vn -0.8921 -0.4458 0.0727
vt 0.658833 0.658833
vt 0.598164 0.500000
vt 0.341167 0.658833
vt 0.500000 0.756997
vt 0.401836 0.500000
vt 0.500000 0.598164
vt 0.658833 0.341167
vt 0.756997 0.500000
vt 0.500000 0.401836
vt 0.341167 0.341167
vt 0.500000 0.243003
vt 0.243003 0.500000
s 0
usemtl uv_material
f 1/1/1 9/2/1 5/3/1 17/4/1
f 9/2/1 10/5/1 5/3/1
f 1/1/2 13/6/2 2/7/2 9/8/2
f 13/6/2 14/9/2 2/7/2
f 1/1/3 17/6/3 3/7/3 13/8/3
f 17/6/3 18/9/3 3/7/3
f 9/2/4 2/7/4 6/10/4 10/5/4
f 2/7/4 19/11/4 6/10/4
f 13/6/5 3/3/5 4/10/5 14/9/5
f 3/3/5 11/12/5 4/10/5
f 17/6/6 5/3/6 7/10/6 18/9/6
f 5/3/6 15/12/6 7/10/6
f 10/8/7 6/7/7 15/6/7 5/1/7
f 6/7/7 16/9/7 15/6/7
f 7/3/8 12/5/8 3/1/8 18/4/8
f 12/5/8 11/2/8 3/1/8
f 4/7/9 20/9/9 2/1/9 14/8/9
f 20/9/9 19/6/9 2/1/9
f 8/10/10 16/12/10 19/6/10 20/9/10
f 16/12/10 6/3/10 19/6/10
f 8/10/11 12/12/11 15/6/11 16/9/11
f 12/12/11 7/3/11 15/6/11
f 8/10/12 20/11/12 11/2/12 12/5/12
f 20/11/12 4/7/12 11/2/12
