# Blender 3.6.1
# www.blender.org
mtllib testobject.mtl
o Cube.002
v 0.955577 0.000000 5.359357
v 0.955577 1.032831 5.359357
v 1.988003 0.000000 5.388259
v 1.988003 1.032831 5.388259
v 0.926675 0.000000 6.391783
v 0.926675 1.032831 6.391783
v 1.959101 0.000000 6.420685
v 1.959101 1.032831 6.420685
vn 0.0280 -0.0000 -0.9996
vn 0.9996 -0.0000 0.0280
vn -0.0280 -0.0000 0.9996
vn -0.9996 -0.0000 -0.0280
vn -0.0000 -1.0000 -0.0000
vn -0.0000 1.0000 -0.0000
vt 0.375000 0.000000
vt 0.625000 0.000000
vt 0.625000 0.250000
vt 0.375000 0.250000
vt 0.625000 0.500000
vt 0.375000 0.500000
vt 0.625000 0.750000
vt 0.375000 0.750000
vt 0.625000 1.000000
vt 0.375000 1.000000
vt 0.125000 0.500000
vt 0.125000 0.750000
vt 0.875000 0.500000
vt 0.875000 0.750000
s 0
usemtl uv_material
f 1/1/1 2/2/1 4/3/1 3/4/1
f 3/4/2 4/3/2 8/5/2 7/6/2
f 7/6/3 8/5/3 6/7/3 5/8/3
f 5/8/4 6/7/4 2/9/4 1/10/4
f 3/11/5 7/6/5 5/8/5 1/12/5
f 8/5/6 4/13/6 2/14/6 6/7/6
