# Blender 3.6.1
# www.blender.org
mtllib testobject.mtl
o cylinder
v -1.820444 -0.163401 -7.343396
v -1.820444 3.189039 -7.343396
v -1.492935 -0.163401 -7.311140
v -1.492935 3.189039 -7.311140
v -1.178012 -0.163401 -7.215609
v -1.178012 3.189039 -7.215609
v -0.887777 -0.163401 -7.060475
v -0.887777 3.189039 -7.060475
v -0.633384 -0.163401 -6.851700
v -0.633384 3.189039 -6.851700
v -0.424609 -0.163401 -6.597307
v -0.424609 3.189039 -6.597307
v -0.269475 -0.163401 -6.307072
v -0.269475 3.189039 -6.307072
v -0.173944 -0.163401 -5.992149
v -0.173944 3.189039 -5.992149
v -0.141687 -0.163401 -5.664639
v -0.141687 3.189039 -5.664639
v -0.173944 -0.163401 -5.337130
v -0.173944 3.189039 -5.337130
v -0.269475 -0.163401 -5.022207
v -0.269475 3.189039 -5.022207
v -0.424609 -0.163401 -4.731972
v -0.424609 3.189039 -4.731972
v -0.633384 -0.163401 -4.477579
v -0.633384 3.189039 -4.477579
v -0.887777 -0.163401 -4.268804
v -0.887777 3.189039 -4.268804
v -1.178012 -0.163401 -4.113670
v -1.178012 3.189039 -4.113670
v -1.492935 -0.163401 -4.018139
v -1.492935 3.189039 -4.018139
v -1.820444 -0.163401 -3.985883
v -1.820444 3.189039 -3.985883
v -2.147954 -0.163401 -4.018139
v -2.147954 3.189039 -4.018139
v -2.462877 -0.163401 -4.113670
v -2.462877 3.189039 -4.113670
v -2.753112 -0.163401 -4.268804
v -2.753112 3.189039 -4.268804
v -3.007504 -0.163401 -4.477579
v -3.007504 3.189039 -4.477579
v -3.216280 -0.163401 -4.731972
v -3.216280 3.189039 -4.731972
v -3.371413 -0.163401 -5.022207
v -3.371413 3.189039 -5.022207
v -3.466944 -0.163401 -5.337130
v -3.466944 3.189039 -5.337130
v -3.499201 -0.163401 -5.664639
v -3.499201 3.189039 -5.664639
v -3.466944 -0.163401 -5.992149
v -3.466944 3.189039 -5.992149
v -3.371413 -0.163401 -6.307072
v -3.371413 3.189039 -6.307072
v -3.216280 -0.163401 -6.597307
v -3.216280 3.189039 -6.597307
v -3.007504 -0.163401 -6.851700
v -3.007504 3.189039 -6.851700
v -2.753112 -0.163401 -7.060475
v -2.753112 3.189039 -7.060475
v -2.462877 -0.163401 -7.215609
v -2.462877 3.189039 -7.215609
v -2.147954 -0.163401 -7.311140
v -2.147954 3.189039 -7.311140
vn -0.0000 -0.0000 -1.0000
vn 0.1951 -0.0000 -0.9808
vn 0.3827 -0.0000 -0.9239
vn 0.5556 -0.0000 -0.8315
vn 0.7071 -0.0000 -0.7071
vn 0.8315 -0.0000 -0.5556
vn 0.9239 -0.0000 -0.3827
vn 0.9808 -0.0000 -0.1951
vn 1.0000 -0.0000 -0.0000
vn 0.9808 -0.0000 0.1951
vn 0.9239 -0.0000 0.3827
vn 0.8315 -0.0000 0.5556
vn 0.7071 -0.0000 0.7071
vn 0.5556 -0.0000 0.8315
vn 0.3827 -0.0000 0.9239
vn 0.1951 -0.0000 0.9808
vn -0.0000 -0.0000 1.0000
vn -0.1951 -0.0000 0.9808
vn -0.3827 -0.0000 0.9239
vn -0.5556 -0.0000 0.8315
vn -0.7071 -0.0000 0.7071
vn -0.8315 -0.0000 0.5556
vn -0.9239 -0.0000 0.3827
vn -0.9808 -0.0000 0.1951
vn -1.0000 -0.0000 -0.0000
vn -0.9808 -0.0000 -0.1951
vn -0.9239 -0.0000 -0.3827
vn -0.8315 -0.0000 -0.5556
vn -0.7071 -0.0000 -0.7071
vn -0.5556 -0.0000 -0.8315
vn -0.3827 -0.0000 -0.9239
vn -0.0000 1.0000 -0.0000
vn -0.1951 -0.0000 -0.9808
vn -0.0000 -1.0000 -0.0000
vt 1.434556 0.556849
vt 1.434556 1.019244
vt 1.376146 1.019244
vt 1.376146 0.556849
vt 1.317736 1.019244
vt 1.317736 0.556849
vt 1.259326 1.019244
vt 1.259326 0.556849
vt 1.200917 1.019244
vt 1.200917 0.556849
vt 1.142507 1.019244
vt 1.142507 0.556849
vt 1.084097 1.019244
vt 1.084097 0.556849
vt 1.025688 1.019244
vt 1.025688 0.556849
vt 0.967278 1.019244
vt 0.967278 0.556849
vt 0.908868 1.019244
vt 0.908868 0.556849
vt 0.850458 1.019244
vt 0.850458 0.556849
vt 0.792049 1.019244
vt 0.792049 0.556849
vt 0.733639 1.019244
vt 0.733639 0.556849
vt 0.675229 1.019244
vt 0.675229 0.556849
vt 0.616820 1.019244
vt 0.616820 0.556849
vt 0.558410 1.019244
vt 0.558410 0.556849
vt 0.500000 1.019244
vt 0.500000 0.556849
vt 0.441590 1.019244
vt 0.441590 0.556849
vt 0.383181 1.019244
vt 0.383181 0.556849
vt 0.324771 1.019244
vt 0.324771 0.556849
vt 0.266361 1.019244
vt 0.266361 0.556849
vt 0.207951 1.019244
vt 0.207951 0.556849
vt 0.149542 1.019244
vt 0.149542 0.556849
vt 0.091132 1.019244
vt 0.091132 0.556849
vt 0.032722 1.019244
vt 0.032722 0.556849
vt -0.025688 1.019244
vt -0.025688 0.556849
vt -0.084097 1.019244
vt -0.084097 0.556849
vt -0.142507 1.019244
vt -0.142507 0.556849
vt -0.200917 1.019244
vt -0.200917 0.556849
vt -0.259327 1.019244
vt -0.259327 0.556849
vt -0.317736 1.019244
vt -0.317736 0.556849
vt 0.268057 0.485973
vt 0.214606 0.491237
vt 0.161156 0.485973
vt 0.109760 0.470382
vt 0.062392 0.445063
vt 0.020875 0.410991
vt -0.013198 0.369473
vt -0.038516 0.322106
vt -0.054107 0.270710
vt -0.059372 0.217259
vt -0.054107 0.163809
vt -0.038516 0.112412
vt -0.013198 0.065045
vt 0.020875 0.023528
vt 0.062392 -0.010545
vt 0.109760 -0.035863
vt 0.161156 -0.051454
vt 0.214606 -0.056719
vt 0.268057 -0.051454
vt 0.319453 -0.035863
vt 0.366820 -0.010545
vt 0.408338 0.023528
vt 0.442411 0.065045
vt 0.467729 0.112412
vt 0.483320 0.163809
vt 0.488584 0.217259
vt 0.483320 0.270710
vt 0.467729 0.322106
vt 0.442411 0.369473
vt 0.408338 0.410991
vt 0.366820 0.445063
vt 0.319453 0.470382
vt -0.376146 1.019244
vt -0.376146 0.556849
vt -0.434556 1.019244
vt -0.434556 0.556849
vt 0.785394 0.491237
vt 0.838844 0.485973
vt 0.890240 0.470382
vt 0.937608 0.445063
vt 0.979125 0.410991
vt 1.013198 0.369473
vt 1.038516 0.322106
vt 1.054107 0.270710
vt 1.059372 0.217259
vt 1.054107 0.163809
vt 1.038516 0.112412
vt 1.013198 0.065045
vt 0.979125 0.023528
vt 0.937608 -0.010545
vt 0.890240 -0.035863
vt 0.838844 -0.051454
vt 0.785394 -0.056719
vt 0.731943 -0.051454
vt 0.680547 -0.035863
vt 0.633180 -0.010545
vt 0.591662 0.023528
vt 0.557589 0.065045
vt 0.532271 0.112412
vt 0.516680 0.163809
vt 0.511416 0.217259
vt 0.516680 0.270710
vt 0.532271 0.322106
vt 0.557589 0.369473
vt 0.591662 0.410991
vt 0.633180 0.445063
vt 0.680547 0.470382
vt 0.731943 0.485973
s 1
usemtl uv_material
f 1/1/1 2/2/1 4/3/2 3/4/2
f 3/4/2 4/3/2 6/5/3 5/6/3
f 5/6/3 6/5/3 8/7/4 7/8/4
f 7/8/4 8/7/4 10/9/5 9/10/5
f 9/10/5 10/9/5 12/11/6 11/12/6
f 11/12/6 12/11/6 14/13/7 13/14/7
f 13/14/7 14/13/7 16/15/8 15/16/8
f 15/16/8 16/15/8 18/17/9 17/18/9
f 17/18/9 18/17/9 20/19/10 19/20/10
f 19/20/10 20/19/10 22/21/11 21/22/11
f 21/22/11 22/21/11 24/23/12 23/24/12
f 23/24/12 24/23/12 26/25/13 25/26/13
f 25/26/13 26/25/13 28/27/14 27/28/14
f 27/28/14 28/27/14 30/29/15 29/30/15
f 29/30/15 30/29/15 32/31/16 31/32/16
f 31/32/16 32/31/16 34/33/17 33/34/17
f 33/34/17 34/33/17 36/35/18 35/36/18
f 35/36/18 36/35/18 38/37/19 37/38/19
f 37/38/19 38/37/19 40/39/20 39/40/20
f 39/40/20 40/39/20 42/41/21 41/42/21
f 41/42/21 42/41/21 44/43/22 43/44/22
f 43/44/22 44/43/22 46/45/23 45/46/23
f 45/46/23 46/45/23 48/47/24 47/48/24
f 47/48/24 48/47/24 50/49/25 49/50/25
f 49/50/25 50/49/25 52/51/26 51/52/26
f 51/52/26 52/51/26 54/53/27 53/54/27
f 53/54/27 54/53/27 56/55/28 55/56/28
f 55/56/28 56/55/28 58/57/29 57/58/29
f 57/58/29 58/57/29 60/59/30 59/60/30
f 59/60/30 60/59/30 62/61/31 61/62/31
f 4/63/32 2/64/32 64/65/32 62/66/32 60/67/32 58/68/32 56/69/32 54/70/32 52/71/32 50/72/32 48/73/32 46/74/32 44/75/32 42/76/32 40/77/32 38/78/32 36/79/32 34/80/32 32/81/32 30/82/32 28/83/32 26/84/32 24/85/32 22/86/32 20/87/32 18/88/32 16/89/32 14/90/32 12/91/32 10/92/32 8/93/32 6/94/32
f 61/62/31 62/61/31 64/95/33 63/96/33
f 63/96/33 64/95/33 2/97/1 1/98/1
f 1/99/34 3/100/34 5/101/34 7/102/34 9/103/34 11/104/34 13/105/34 15/106/34 17/107/34 19/108/34 21/109/34 23/110/34 25/111/34 27/112/34 29/113/34 31/114/34 33/115/34 35/116/34 37/117/34 39/118/34 41/119/34 43/120/34 45/121/34 47/122/34 49/123/34 51/124/34 53/125/34 55/126/34 57/127/34 59/128/34 61/129/34 63/130/34
